<svg width="30" height="46" viewBox="0 0 30 46" fill="none" xmlns="http://www.w3.org/2000/svg">
  <path d="M20.5003 4.18148C20.5003 2.6352 19.4579 1.35474 18.1288 1.17579C18.0727 0.928421 17.9366 0.706467 17.7415 0.544369C17.5464 0.382272 17.3033 0.289095 17.0499 0.279297L14.1727 0.279297C13.9174 0.289502 13.6727 0.38405 13.4769 0.548148C13.281 0.712247 13.1451 0.936638 13.0903 1.18622C11.7908 1.39991 10.7883 2.663 10.79 4.18322V14.0499C10.7903 14.2156 10.8031 14.3812 10.8283 14.545C11.042 15.9818 12.1608 17.0781 13.4882 17.0781H17.8143C19.173 17.0781 20.297 15.9384 20.4795 14.472C20.497 14.3332 20.5057 14.1933 20.5055 14.0533L20.5003 4.18148ZM17.8126 15.9384H13.4882C12.7099 15.9384 12.0549 15.3442 11.862 14.5363C11.8273 14.3766 11.811 14.2133 11.8134 14.0499V4.18495C11.8134 3.22244 12.4545 2.42671 13.2832 2.30857C13.3793 2.46168 13.5121 2.58841 13.6696 2.67729C13.827 2.76618 14.0041 2.81441 14.1849 2.81763H17.0516C17.2342 2.81303 17.4128 2.76296 17.5711 2.67195C17.7295 2.58094 17.8626 2.45186 17.9585 2.29641C18.8151 2.38154 19.4892 3.1929 19.4892 4.178V14.0447C19.494 14.1884 19.4835 14.3323 19.4579 14.4738C19.2841 15.3129 18.61 15.9384 17.8126 15.9384Z" fill="#F50308"/>
  <path d="M4.04744 23.0654V33.0311L2.25966 24.8914C2.25249 24.8651 2.24669 24.8384 2.24229 24.8115C2.17453 24.4623 2.03728 23.0672 4.04744 23.0654Z" fill="#494949"/>
  <path d="M3.47425 34.8536L0.157567 27.805C-0.00716537 27.4644 -0.0441566 27.076 0.0533232 26.7105C0.0785159 26.6159 0.114058 26.5244 0.159304 26.4377C0.236252 26.2922 0.343023 26.1645 0.472649 26.063C0.602276 25.9615 0.751844 25.8885 0.911595 25.8487C1.15176 25.7852 1.40212 25.7698 1.64825 25.8035L3.47425 34.8536Z" fill="#F50308"/>
  <path d="M20.5725 34.7022C20.5725 34.5788 20.5604 34.4537 20.5517 34.3321C20.5524 34.3269 20.5524 34.3217 20.5517 34.3165V34.2452C20.524 33.9477 20.4799 33.6519 20.4196 33.3592V33.3487C20.3301 32.9045 20.2016 32.4691 20.0357 32.0474C20.0357 32.0353 20.027 32.0248 20.0235 32.0127C20.02 32.0005 19.9974 31.9519 19.9836 31.9206C19.9765 31.9005 19.9684 31.8808 19.9592 31.8615C19.9453 31.8285 19.9332 31.7972 19.9175 31.766C19.9019 31.7347 19.8741 31.6704 19.8532 31.6218C19.789 31.4828 19.7195 31.3473 19.6482 31.2135L19.5857 31.104C19.585 31.0988 19.585 31.0936 19.5857 31.0884V31.0745L19.5231 30.9685L19.4658 30.8712L19.405 30.7774C19.3876 30.7479 19.3685 30.7183 19.3494 30.6905L19.3147 30.6401L19.2469 30.5394C19.1844 30.4508 19.1201 30.3656 19.054 30.277L18.9898 30.1954L18.8542 30.0216C17.4869 28.3972 15.409 27.3982 12.9297 27.3269C12.5777 27.2984 12.2237 27.3066 11.8734 27.3513C10.6714 27.4824 9.53501 27.9659 8.60711 28.7412C8.63147 28.4854 8.70654 28.2371 8.82795 28.0107C8.94936 27.7843 9.11467 27.5843 9.31423 27.4225V21.4389C9.31423 21.3937 9.31423 21.3468 9.31423 21.2999C9.2961 20.9372 9.19215 20.584 9.01093 20.2693C8.82971 19.9546 8.57639 19.6873 8.27179 19.4896C7.98136 19.2973 7.64876 19.1781 7.30233 19.1421C6.95494 19.0993 6.60239 19.1477 6.27944 19.2827C5.95649 19.4176 5.6743 19.6345 5.46069 19.9118C5.16787 20.2864 5.00231 20.7447 4.98812 21.22C4.98812 21.2391 4.98812 21.2565 4.98812 21.2756L4.97249 22.6655V22.6916L4.92905 26.6007L4.9082 28.2808V33.1455V41.822C4.90798 41.9762 4.93814 42.1288 4.99697 42.2713C5.05581 42.4138 5.14216 42.5433 5.25108 42.6524C5.36 42.7615 5.48936 42.848 5.63175 42.907C5.77415 42.9661 5.92679 42.9965 6.08094 42.9965H9.20825V43.3665H9.68777V43.8686C9.6821 44.0058 9.70421 44.1426 9.75278 44.271C9.80135 44.3993 9.87536 44.5166 9.97038 44.6156C10.0654 44.7146 10.1795 44.7934 10.3057 44.8472C10.4319 44.9011 10.5678 44.9288 10.705 44.9288C10.8423 44.9288 10.9781 44.9011 11.1043 44.8472C11.2306 44.7934 11.3446 44.7146 11.4396 44.6156C11.5347 44.5166 11.6087 44.3993 11.6572 44.271C11.7058 44.1426 11.7279 44.0058 11.7223 43.8686V43.3665H12.2018V43.0868H12.3477C12.445 43.0868 12.5423 43.0868 12.6396 43.0868C12.6396 43.0868 12.8394 43.1007 13.1747 43.0868L13.4666 43.0694C13.6647 43.0521 13.894 43.026 14.1407 42.986C14.712 42.8955 15.2718 42.7435 15.8103 42.5326C15.9267 42.4857 16.0431 42.4353 16.1578 42.3797H16.1717C16.4588 42.2346 16.7367 42.0722 17.0039 41.8932C17.3568 41.6593 17.6898 41.3966 17.9994 41.1079C18.0881 41.0193 18.1732 40.9342 18.2618 40.8265C19.9019 39.2072 20.7272 37.2631 20.5725 34.7022ZM12.7091 39.2315C11.9243 39.2312 11.1571 38.9981 10.5048 38.5618C9.85239 38.1255 9.34405 37.5055 9.04402 36.7803C8.744 36.0551 8.66576 35.2572 8.81921 34.4875C8.97267 33.7178 9.35091 33.0109 9.90612 32.4562C10.4613 31.9015 11.1686 31.5238 11.9384 31.3711C12.7082 31.2183 13.506 31.2972 14.231 31.5979C14.956 31.8985 15.5755 32.4074 16.0112 33.0602C16.447 33.7129 16.6794 34.4802 16.679 35.2651C16.679 35.7863 16.5763 36.3023 16.3768 36.7838C16.1772 37.2652 15.8847 37.7027 15.5161 38.071C15.1474 38.4394 14.7097 38.7315 14.2281 38.9306C13.7464 39.1297 13.2303 39.232 12.7091 39.2315Z" fill="#F50308"/>
  <path fill-rule="evenodd" clip-rule="evenodd" d="M26.499 16.1555C26.499 16.1555 26.784 14.4181 25.1265 14.4268L20.4807 14.465H19.4504L11.8632 14.5293L10.833 14.538L6.10032 14.5779C6.10032 14.5779 4.93105 14.5779 4.94148 15.7576L4.97449 19.7067C4.97449 19.7067 6.83176 17.7105 8.89404 19.3193C9.2801 19.6375 9.56706 20.0595 9.72104 20.5355C9.74536 20.6223 9.76621 20.7127 9.78359 20.8065C9.80863 20.9212 9.82719 21.0372 9.83918 21.154C9.83918 21.154 9.83918 21.154 9.83918 21.1661C9.85134 21.2877 9.85829 21.4181 9.85829 21.557L9.87393 26.9621C9.87393 26.9621 13.8056 24.6913 18.0623 26.9847C18.0623 26.9847 21.0645 28.239 22.5204 32.7893C22.5204 32.7893 23.7817 37.4698 20.4008 41.2382C19.7619 41.9689 19.019 42.6017 18.196 43.1163L19.3653 43.1302V43.4777H19.8448C19.8448 43.4777 19.5668 44.9093 20.8629 44.9979C20.8629 44.9979 22.0791 45.0692 21.8793 43.476H22.3588V43.1042L25.6859 43.0694C25.6859 43.0694 26.7284 42.993 26.7284 41.9036L26.499 16.1555Z" fill="#494949"/>
  <path d="M29.4858 42.8595L27.1437 43.346L26.5218 45.721L24.8174 40.9102L29.4858 42.8595Z" fill="#F50308"/>
  </svg>
  