
<svg id="Layer_1" data-name="Layer 1" xmlns="http://www.w3.org/2000/svg" viewBox="0 0 292.79 86.62"><defs><style>.cls-1{fill:#4d4d4d;}.cls-2{fill:#f50308;}</style></defs><path class="cls-1" d="M68.34,72.07H64.7V70.75h8.85v1.32H69.9V82.71H68.34Z"/><path class="cls-1" d="M75.8,76.8c0-1,0-1.88-.07-2.68h1.36l.06,1.69h.07a2.58,2.58,0,0,1,2.37-1.88A2,2,0,0,1,80,74v1.47a2.73,2.73,0,0,0-.53,0,2.2,2.2,0,0,0-2.1,2,5.32,5.32,0,0,0-.07.73v4.58H75.8Z"/><path class="cls-1" d="M88,82.71l-.12-1.09h0a3.2,3.2,0,0,1-2.63,1.28,2.44,2.44,0,0,1-2.62-2.46c0-2.08,1.84-3.21,5.16-3.2v-.17a1.77,1.77,0,0,0-2-2,4.29,4.29,0,0,0-2.24.64l-.35-1a5.34,5.34,0,0,1,2.82-.76c2.62,0,3.26,1.79,3.26,3.51v3.21a11.84,11.84,0,0,0,.14,2.06Zm-.23-4.38c-1.7,0-3.63.26-3.63,1.93a1.38,1.38,0,0,0,1.47,1.49,2.12,2.12,0,0,0,2.07-1.44,1.46,1.46,0,0,0,.09-.49Z"/><path class="cls-1" d="M94.06,74.12,95.74,79a21.25,21.25,0,0,1,.7,2.2h0c.19-.71.44-1.42.73-2.2l1.66-4.83h1.63l-3.37,8.59H95.66l-3.27-8.59Z"/><path class="cls-1" d="M104.45,78.7a2.75,2.75,0,0,0,2.94,3,5.63,5.63,0,0,0,2.38-.45l.26,1.12a6.92,6.92,0,0,1-2.85.53A4,4,0,0,1,103,78.56c0-2.59,1.52-4.63,4-4.63,2.81,0,3.55,2.46,3.55,4,0,.32,0,.57,0,.73ZM109,77.58a2.21,2.21,0,0,0-2.16-2.53,2.57,2.57,0,0,0-2.39,2.53Z"/><path class="cls-1" d="M114.23,70.12h1.56V82.71h-1.56Z"/><path class="cls-1" d="M125.56,80.83a5.51,5.51,0,0,0,2.77.78c1.58,0,2.5-.84,2.5-2s-.64-1.76-2.25-2.38c-2-.69-3.16-1.7-3.16-3.39,0-1.86,1.54-3.24,3.87-3.24a5.48,5.48,0,0,1,2.64.58l-.43,1.26a4.82,4.82,0,0,0-2.27-.56c-1.63,0-2.25,1-2.25,1.79,0,1.11.73,1.66,2.38,2.3,2,.78,3,1.76,3,3.51s-1.37,3.44-4.19,3.44a6.14,6.14,0,0,1-3-.76Z"/><path class="cls-1" d="M138,71.71a.92.92,0,0,1-1,1,.93.93,0,0,1-.94-1,1,1,0,0,1,1-1A.92.92,0,0,1,138,71.71Zm-1.74,11V74.12h1.56v8.59Z"/><path class="cls-1" d="M142.15,76.45c0-.89,0-1.62-.07-2.33h1.37l.07,1.39h0a3,3,0,0,1,2.7-1.58,2.55,2.55,0,0,1,2.43,1.72h0a3.7,3.7,0,0,1,1-1.12,2.92,2.92,0,0,1,1.9-.6c1.13,0,2.82.74,2.82,3.72v5.06h-1.53V77.85c0-1.65-.6-2.64-1.86-2.64a2,2,0,0,0-1.84,1.41,2.65,2.65,0,0,0-.13.78v5.31h-1.52V77.56c0-1.36-.61-2.35-1.79-2.35a2.14,2.14,0,0,0-1.94,1.56,2.33,2.33,0,0,0-.12.76v5.18h-1.53Z"/><path class="cls-1" d="M158.71,76.92c0-1.09,0-2-.07-2.8H160l.07,1.48h0a3.37,3.37,0,0,1,3-1.67c2.07,0,3.63,1.75,3.63,4.36,0,3.09-1.88,4.61-3.9,4.61a3,3,0,0,1-2.64-1.35h0v4.67h-1.55Zm1.55,2.29a3.14,3.14,0,0,0,.07.64,2.41,2.41,0,0,0,2.34,1.83c1.65,0,2.6-1.35,2.6-3.32,0-1.72-.9-3.19-2.55-3.19a2.49,2.49,0,0,0-2.36,1.93,2.76,2.76,0,0,0-.1.64Z"/><path class="cls-1" d="M170.57,70.12h1.56V82.71h-1.56Z"/><path class="cls-1" d="M177.1,74.12,179,79.19c.19.57.4,1.25.55,1.76h0c.16-.51.34-1.17.55-1.79l1.7-5h1.65l-2.34,6.12c-1.12,2.94-1.88,4.45-2.94,5.37a4.15,4.15,0,0,1-1.92,1l-.39-1.31a4.05,4.05,0,0,0,1.37-.76,4.76,4.76,0,0,0,1.31-1.74,1.1,1.1,0,0,0,.12-.37,1.36,1.36,0,0,0-.1-.41l-3.18-7.91Z"/><path class="cls-1" d="M285.74,15.33a7,7,0,1,0,7.05,7A7,7,0,0,0,285.74,15.33Zm0,13.3A6.25,6.25,0,1,1,292,22.38,6.26,6.26,0,0,1,285.74,28.63Z"/><path class="cls-1" d="M288.3,24.1A2.15,2.15,0,0,0,287,22.36v0a2.25,2.25,0,0,0,1.61-2.19A2.08,2.08,0,0,0,288,18.5a3.49,3.49,0,0,0-2.48-.7,12.21,12.21,0,0,0-2.14.17v8.49h1.12V22.74h1c1,0,1.47.48,1.72,1.66a11.15,11.15,0,0,0,.58,2.06H289A14.86,14.86,0,0,1,288.3,24.1Zm-2.69-2.21h-1.13V18.75a4.56,4.56,0,0,1,1.09-.1c1.17,0,2,.5,2,1.6S286.79,21.89,285.61,21.89Z"/><path class="cls-2" d="M39.71,23a14.9,14.9,0,0,0,3.63-7.28c.88-4.35,0-7.53-2.76-9.52s-7.62-3-14.69-3H10.52L4.6,31.05h17c5.9,0,8.38,2.08,7.48,6.22a7.6,7.6,0,0,1-3.15,5.06A11.9,11.9,0,0,1,19.2,44H10.65L0,52.64H18.57q8.36,0,14-3.77A16.28,16.28,0,0,0,39.75,38.3c.68-3.17.53-5.73-.47-7.63s-3-3.21-6-3.91l.09-.4A10.77,10.77,0,0,0,39.71,23Zm-7.45-5.84a6.24,6.24,0,0,1-2.83,4.33A12.77,12.77,0,0,1,23,22.77h-6.3l2.55-11h5.49c3,0,5.14.42,6.34,1.24S32.63,15.21,32.26,17.13Z"/><polygon class="cls-2" points="14.91 31.06 11.66 44.45 0 52.64 8.15 31.06 14.91 31.06"/><path class="cls-2" d="M79.33,18.67q-3.49-4.58-11.47-4.58a20.76,20.76,0,0,0-14.29,5.22Q47.72,24.53,45.73,34q-2,9.24,2.07,14.26t13.22,5a39.84,39.84,0,0,0,7.69-.64,27.45,27.45,0,0,0,6.17-2l1.75-8a43,43,0,0,1-6.85,2.23,30.57,30.57,0,0,1-6.61.71c-2.92,0-5-.82-6.34-2.47s-1.68-3.93-1.15-6.84H80.13l1-5Q82.84,23.26,79.33,18.67Zm-7.48,10.8H57.35a12.81,12.81,0,0,1,3.39-5.94,8,8,0,0,1,5.61-2.11,5.38,5.38,0,0,1,4.74,2.11Q72.57,25.65,71.85,29.47Z"/><path class="cls-2" d="M109.81,33A23.41,23.41,0,0,0,104,29.62a32.5,32.5,0,0,1-5.73-3,2.27,2.27,0,0,1-1-2.43c.32-1.64,2-2.47,5-2.47a15.09,15.09,0,0,1,4.86.79c1.54.54,3.19,1.21,4.93,2l4.7-7.41a27,27,0,0,0-12.66-3q-7.17,0-11.67,2.75a11.53,11.53,0,0,0-5.53,7.84,11.2,11.2,0,0,0-.16,4.94A6.82,6.82,0,0,0,89,33.17a24.34,24.34,0,0,0,5.73,3.39,39.41,39.41,0,0,1,4.38,2.26,8.07,8.07,0,0,1,2.15,1.75,2.36,2.36,0,0,1,.32,2q-.7,3.27-6.29,3.27a23.81,23.81,0,0,1-6.14-.93,27.67,27.67,0,0,1-6-2.26l-1.84,8.52a24.37,24.37,0,0,0,5.1,1.59,35.44,35.44,0,0,0,6.92.56q8.06,0,12.71-3A13.47,13.47,0,0,0,112,41.41a10.9,10.9,0,0,0,.05-4.82A7.26,7.26,0,0,0,109.81,33Z"/><path class="cls-2" d="M135.49,22.53h10.59l1.67-7.72H137.16l1.67-8h-6.6l-4.71,8-6.37,3.5-1,4.3h4.94l-3.83,18.25q-1.35,6.28.8,9.39t8.36,3.11a27,27,0,0,0,9.87-1.68l1.6-7.72a24.86,24.86,0,0,1-6.77,1.2,4,4,0,0,1-3-1c-.66-.69-.83-1.78-.51-3.26Z"/><path class="cls-2" d="M189.73,11.94l1.82-8.76H154.2l-1.83,8.76h13.46l-8.67,40.7h10.51L175.91,14l-8.67-1.55v-.48Z"/><path class="cls-2" d="M231.36,14.81l-1.89,8.91H208.35a12.9,12.9,0,0,0-8.2,2.54,12.06,12.06,0,0,0-4.3,7.09l-4.07,19.27H181.43l8-37.83h7.81L196,27.16h.56c1.59-2.12,2-8.2,7.28-11.12a14.75,14.75,0,0,1,6-1.91h0l3.42.11Z"/><path class="cls-2" d="M218.53,26.49,213,52.64h10.36l6-28.42C227.56,24.31,222.19,24.3,218.53,26.49ZM221,14.81l-1.9,8.92h10.36l1.89-8.91ZM229.29,0q-5.65,0-6.68,5c-.7,3.4.84,5.09,4.6,5.09a6.91,6.91,0,0,0,4.47-1.35A6.2,6.2,0,0,0,233.83,5C234.51,1.67,233,0,229.29,0Z"/><path class="cls-2" d="M269.17,19.27c-1.79-3.45-4.9-5.18-9.36-5.18a14.94,14.94,0,0,0-11.87,5.66h-.47L247,14.81h-8.36L227.07,69.29h10.36L240.61,54c.16-.54-2-5.87-1.73-9h.56c1.8,3.18,7.31,8.28,11.76,8.28A15.59,15.59,0,0,0,259.41,51a19.23,19.23,0,0,0,6.49-6.77,35.42,35.42,0,0,0,4-10.51Q271.84,24.45,269.17,19.27Zm-9.76,14.26Q256.95,45,250,45q-3.9,0-5.1-2.67t.09-8.72l.24-1.12c.73-3.61,1.88-6.19,3.42-7.76a8.21,8.21,0,0,1,6.13-2.35q3.59,0,4.7,2.79C260.23,27,260.21,29.81,259.41,33.53Z"/><polygon class="cls-2" points="0 52.64 10.52 3.18 11.66 38.43 0 52.64"/></svg>