<svg width="109" height="46" viewBox="0 0 109 46" fill="none" xmlns="http://www.w3.org/2000/svg">
<path d="M44.4442 23.8056C44.9154 23.292 45.2336 22.6569 45.363 21.972C45.5871 20.8691 45.3548 20.0664 44.6662 19.5639C43.9776 19.0613 42.7389 18.806 40.9502 18.7979H37.065L35.5656 25.849H39.8623C41.3556 25.849 41.9831 26.3746 41.7549 27.4198C41.7153 27.676 41.6243 27.9216 41.4874 28.1418C41.3505 28.362 41.1706 28.5523 40.9583 28.7012C40.5509 28.9763 39.9825 29.1087 39.2592 29.1087H37.0976L34.4043 31.3029H39.0901C40.4999 31.3029 41.6843 30.9844 42.6432 30.3474C43.1085 30.0468 43.5082 29.6552 43.8184 29.1962C44.1286 28.7372 44.3428 28.2203 44.4483 27.6765C44.6214 26.8717 44.5807 26.2259 44.328 25.7451C44.0754 25.2643 43.5702 24.9302 42.8143 24.757L42.8367 24.6551C43.4542 24.565 44.0219 24.265 44.4442 23.8056ZM42.5637 22.3265C42.5288 22.5496 42.4468 22.7627 42.3232 22.9517C42.1995 23.1407 42.0371 23.3012 41.8466 23.4226C41.4778 23.6446 40.9298 23.7546 40.2066 23.7546H38.6154L39.2592 20.9757H40.6487C41.4147 20.9757 41.9464 21.0796 42.25 21.2874C42.5535 21.4953 42.6574 21.8416 42.5637 22.3265Z" fill="#494949"/>
<path d="M38.1754 25.8486L37.3523 29.2346L34.4043 31.3086L36.4661 25.8486H38.1754Z" fill="#494949"/>
<path d="M54.4679 22.7156C53.8771 21.9428 52.91 21.5564 51.5668 21.5564C50.2383 21.5228 48.9466 21.9946 47.9526 22.8765C46.9638 23.7567 46.3024 24.9953 45.9682 26.5926C45.6328 28.1505 45.8073 29.3525 46.4918 30.1986C47.1764 31.0448 48.2908 31.4706 49.8351 31.476C50.4873 31.4851 51.1388 31.4312 51.7807 31.3151C52.3182 31.2082 52.8413 31.0386 53.3392 30.8098L53.7834 28.797C53.2224 29.0336 52.6424 29.2224 52.0496 29.3613C51.5011 29.4825 50.9408 29.5426 50.379 29.5406C49.6395 29.5406 49.1057 29.3369 48.7777 28.9172C48.4497 28.4975 48.3519 27.923 48.4864 27.1855H54.6696L54.9304 25.9162C55.2115 24.5492 55.0567 23.4898 54.4679 22.7156ZM52.5752 25.4456H48.9081C49.053 24.8772 49.3486 24.3585 49.7638 23.9441C50.1511 23.5867 50.663 23.3951 51.1899 23.4103C51.7399 23.4103 52.1393 23.5896 52.3878 23.9441C52.6364 24.2986 52.6954 24.8038 52.5752 25.4476V25.4456Z" fill="#494949"/>
<path d="M62.1749 26.3441C61.7254 25.9878 61.2265 25.6989 60.6938 25.4864C60.1864 25.2839 59.7005 25.0314 59.2432 24.7326C59.1453 24.6676 59.0696 24.5742 59.0263 24.465C58.983 24.3557 58.9741 24.2358 59.0008 24.1214C59.0823 23.7139 59.504 23.498 60.27 23.498C60.6859 23.4987 61.0988 23.5676 61.4924 23.7017C61.8795 23.8382 62.2971 24.0053 62.7392 24.2049L63.929 22.3326C62.9396 21.8208 61.8403 21.5579 60.7264 21.5666C59.5162 21.5666 58.5342 21.8009 57.7743 22.2613C57.4126 22.4727 57.1005 22.7592 56.859 23.1016C56.6176 23.4439 56.4524 23.834 56.3747 24.2457C56.2693 24.6539 56.2554 25.0803 56.3339 25.4946C56.4231 25.8452 56.6206 26.1589 56.8983 26.391C57.34 26.7423 57.8281 27.0309 58.3488 27.2487C58.7294 27.4172 59.0995 27.6084 59.4571 27.8212C59.6624 27.9371 59.8464 28.0873 60.0011 28.2653C60.0486 28.3375 60.0802 28.419 60.0939 28.5043C60.1076 28.5896 60.103 28.6769 60.0805 28.7604C59.961 29.3104 59.4306 29.5855 58.4894 29.5855C57.9641 29.5753 57.4423 29.4973 56.937 29.3532C56.4141 29.2202 55.9082 29.0274 55.4294 28.7787L54.9648 30.9342C55.3779 31.1184 55.8105 31.2551 56.2545 31.3416C56.8317 31.4463 57.4179 31.4941 58.0045 31.4843C59.3627 31.4843 60.4343 31.2289 61.2194 30.7182C61.6083 30.4659 61.9418 30.1372 62.1996 29.7519C62.4573 29.3666 62.634 28.9329 62.7189 28.4772C62.8145 28.0757 62.818 27.6578 62.729 27.2548C62.6386 26.9031 62.4457 26.5861 62.1749 26.3441Z" fill="#494949"/>
<path d="M68.6717 23.6932H71.3507L71.7725 21.7414H69.0934L69.5172 19.7041H67.8445L66.6547 21.719L65.0432 22.6032L64.8008 23.6911H66.0517L65.084 28.3056C64.8558 29.3664 64.9237 30.1582 65.2877 30.6811C65.6483 31.2068 66.3552 31.4675 67.4024 31.4675C68.2534 31.4823 69.0997 31.3386 69.8981 31.0438L70.3056 29.09C69.7515 29.2707 69.1747 29.3729 68.5922 29.3936C68.4564 29.4031 68.3201 29.385 68.1915 29.3401C68.063 29.2953 67.9449 29.2248 67.8445 29.1328C67.6775 28.9576 67.6408 28.6825 67.7141 28.3077L68.6717 23.6932Z" fill="#494949"/>
<path d="M82.3866 21.0144L82.8471 18.7979H73.4001L72.9355 21.0144H76.3419L74.1579 31.309H76.8064L78.8906 21.5299L76.6985 21.1367V21.0165L82.3866 21.0144Z" fill="#494949"/>
<path d="M92.9163 21.7417L92.4376 23.9929H87.0957C86.3509 23.9648 85.6189 24.1927 85.0217 24.6388C84.4587 25.0887 84.0738 25.7241 83.9359 26.4316L82.907 31.3028H80.2891L82.3264 21.7376H84.3005L83.9705 24.8608H84.1111C84.5185 24.325 84.6102 22.7868 85.9446 22.0493C86.4059 21.7815 86.9194 21.6162 87.4502 21.5645L88.3161 21.5909L92.9163 21.7417Z" fill="#494949"/>
<path d="M89.6695 24.6938L88.2617 31.309H90.8817L92.4097 24.1193C91.9554 24.1417 90.5965 24.1417 89.6695 24.6938ZM90.297 21.7417L89.8182 23.995H92.4362L92.9149 21.7438L90.297 21.7417ZM92.3914 17.9951C91.4406 17.9951 90.877 18.4182 90.7004 19.2644C90.5238 20.1105 90.9123 20.5397 91.8657 20.5519C92.2709 20.5725 92.6707 20.4515 92.9964 20.2097C93.2853 19.97 93.4783 19.6345 93.5404 19.2644C93.7142 18.4168 93.3312 17.9938 92.3914 17.9951Z" fill="#494949"/>
<path d="M102.479 22.8679C102.028 21.9959 101.24 21.5592 100.114 21.5579C99.5375 21.5511 98.9675 21.676 98.447 21.9232C97.9265 22.1704 97.4695 22.5332 97.1106 22.984H96.9904L96.8682 21.7351H94.7535L91.834 35.5114H94.4519L95.2669 31.6405C95.3056 31.5061 94.7596 30.1574 94.8268 29.3649H94.9694C95.4237 30.1696 96.8173 31.4592 97.9439 31.4592C98.6764 31.4606 99.3951 31.2589 100.02 30.8765C100.7 30.4526 101.264 29.8676 101.664 29.1734C102.142 28.3502 102.486 27.4562 102.683 26.5248C102.998 24.9602 102.93 23.7412 102.479 22.8679ZM100.012 26.4739C99.5962 28.408 98.8036 29.375 97.6342 29.375C96.9782 29.375 96.5463 29.1509 96.3446 28.7007C96.1429 28.2505 96.1531 27.515 96.367 26.4943L96.4281 26.2131C96.6135 25.2984 96.9049 24.6464 97.2919 24.2492C97.496 24.0487 97.7391 23.8924 98.0062 23.7901C98.2733 23.6877 98.5586 23.6415 98.8444 23.6543C99.4556 23.6543 99.8447 23.8886 100.032 24.3592C100.22 24.8298 100.213 25.5327 100.012 26.4739Z" fill="#494949"/>
<path d="M50.9861 35.5169V35.1666H53.432V35.5169H52.4065V38.4277H52.0116V35.5169H50.9861ZM53.7365 38.4277V35.9818H54.0996V36.3513H54.1251C54.1696 36.2303 54.2503 36.1321 54.3671 36.0567C54.4839 35.9813 54.6155 35.9436 54.762 35.9436C54.7896 35.9436 54.8241 35.9442 54.8655 35.9452C54.9069 35.9463 54.9382 35.9479 54.9595 35.95V36.3322C54.9467 36.329 54.9175 36.3242 54.8719 36.3178C54.8273 36.3104 54.7801 36.3067 54.7302 36.3067C54.6113 36.3067 54.5051 36.3316 54.4117 36.3815C54.3193 36.4304 54.2461 36.4983 54.1919 36.5854C54.1389 36.6713 54.1123 36.7695 54.1123 36.8799V38.4277H53.7365ZM56.1247 38.4851C55.9697 38.4851 55.829 38.4559 55.7027 38.3975C55.5764 38.338 55.4761 38.2526 55.4017 38.1411C55.3274 38.0286 55.2903 37.8927 55.2903 37.7335C55.2903 37.5933 55.3179 37.4797 55.3731 37.3927C55.4283 37.3046 55.5021 37.2356 55.5944 37.1857C55.6868 37.1358 55.7887 37.0986 55.9002 37.0742C56.0127 37.0487 56.1257 37.0286 56.2393 37.0137C56.388 36.9946 56.5084 36.9803 56.6008 36.9707C56.6942 36.9601 56.7622 36.9426 56.8046 36.9182C56.8482 36.8937 56.8699 36.8513 56.8699 36.7908V36.778C56.8699 36.6209 56.8269 36.4988 56.7409 36.4118C56.656 36.3247 56.527 36.2812 56.354 36.2812C56.1746 36.2812 56.0339 36.3205 55.932 36.399C55.8301 36.4776 55.7584 36.5615 55.717 36.6506L55.3603 36.5233C55.424 36.3746 55.509 36.2589 55.6151 36.1761C55.7223 36.0923 55.8391 36.0339 55.9654 36.001C56.0928 35.967 56.2181 35.95 56.3412 35.95C56.4198 35.95 56.51 35.9596 56.612 35.9787C56.7149 35.9967 56.8142 36.0344 56.9097 36.0917C57.0063 36.149 57.0865 36.2356 57.1502 36.3513C57.2139 36.467 57.2457 36.622 57.2457 36.8163V38.4277H56.8699V38.0965H56.8508C56.8253 38.1496 56.7829 38.2064 56.7234 38.2669C56.664 38.3274 56.5849 38.3789 56.4862 38.4214C56.3874 38.4638 56.2669 38.4851 56.1247 38.4851ZM56.182 38.1475C56.3306 38.1475 56.4559 38.1183 56.5578 38.0599C56.6608 38.0015 56.7383 37.9261 56.7903 37.8338C56.8434 37.7414 56.8699 37.6443 56.8699 37.5424V37.1984C56.854 37.2175 56.819 37.235 56.7648 37.251C56.7117 37.2658 56.6502 37.2791 56.5801 37.2908C56.5111 37.3014 56.4437 37.3109 56.3779 37.3194C56.3131 37.3269 56.2606 37.3332 56.2202 37.3386C56.1226 37.3513 56.0313 37.372 55.9463 37.4007C55.8625 37.4283 55.7945 37.4702 55.7425 37.5265C55.6916 37.5817 55.6661 37.657 55.6661 37.7526C55.6661 37.8831 55.7144 37.9819 55.811 38.0487C55.9087 38.1146 56.0323 38.1475 56.182 38.1475ZM59.8441 35.9818L58.9396 38.4277H58.5574L57.653 35.9818H58.0606L58.7358 37.9309H58.7613L59.4364 35.9818H59.8441ZM61.278 38.4787C61.0423 38.4787 60.839 38.4267 60.6681 38.3226C60.4983 38.2175 60.3672 38.071 60.2748 37.8831C60.1835 37.6942 60.1379 37.4744 60.1379 37.2239C60.1379 36.9734 60.1835 36.7526 60.2748 36.5615C60.3672 36.3693 60.4956 36.2196 60.6602 36.1124C60.8258 36.0041 61.019 35.95 61.2398 35.95C61.3672 35.95 61.493 35.9712 61.6172 36.0137C61.7414 36.0562 61.8544 36.1252 61.9564 36.2207C62.0583 36.3152 62.1395 36.4405 62.2 36.5965C62.2605 36.7526 62.2908 36.9447 62.2908 37.1729V37.3322H60.4054V37.0073H61.9086C61.9086 36.8693 61.881 36.7462 61.8258 36.6379C61.7716 36.5296 61.6941 36.4442 61.5933 36.3815C61.4935 36.3189 61.3757 36.2876 61.2398 36.2876C61.0901 36.2876 60.9606 36.3247 60.8512 36.399C60.743 36.4723 60.6596 36.5678 60.6012 36.6857C60.5429 36.8035 60.5137 36.9298 60.5137 37.0647V37.2812C60.5137 37.4659 60.5455 37.6225 60.6092 37.751C60.674 37.8784 60.7637 37.9755 60.8783 38.0424C60.993 38.1082 61.1262 38.1411 61.278 38.1411C61.3767 38.1411 61.4659 38.1273 61.5455 38.0997C61.6262 38.071 61.6957 38.0286 61.7541 37.9723C61.8125 37.915 61.8576 37.8439 61.8895 37.7589L62.2525 37.8608C62.2143 37.984 62.1501 38.0923 62.0599 38.1857C61.9696 38.2781 61.8582 38.3502 61.7255 38.4023C61.5928 38.4532 61.4436 38.4787 61.278 38.4787ZM63.2382 35.1666V38.4277H62.8624V35.1666H63.2382ZM67.0221 35.9818C67.003 35.8205 66.9255 35.6952 66.7896 35.606C66.6537 35.5169 66.4871 35.4723 66.2896 35.4723C66.1452 35.4723 66.0189 35.4956 65.9106 35.5424C65.8034 35.5891 65.7195 35.6533 65.659 35.735C65.5996 35.8168 65.5699 35.9097 65.5699 36.0137C65.5699 36.1007 65.5906 36.1756 65.632 36.2382C65.6744 36.2998 65.7286 36.3513 65.7944 36.3927C65.8602 36.433 65.9292 36.4665 66.0014 36.493C66.0736 36.5185 66.1399 36.5392 66.2004 36.5551L66.5316 36.6443C66.6166 36.6666 66.7111 36.6974 66.8151 36.7366C66.9202 36.7759 67.0205 36.8295 67.116 36.8975C67.2127 36.9643 67.2923 37.0503 67.3549 37.1554C67.4175 37.2605 67.4489 37.3895 67.4489 37.5424C67.4489 37.7186 67.4027 37.8778 67.3103 38.0201C67.219 38.1623 67.0853 38.2754 66.909 38.3593C66.7339 38.4431 66.521 38.4851 66.2705 38.4851C66.0369 38.4851 65.8347 38.4474 65.6638 38.372C65.4939 38.2966 65.3602 38.1915 65.2625 38.0567C65.1659 37.9219 65.1112 37.7653 65.0985 37.587H65.5062C65.5168 37.7101 65.5582 37.812 65.6304 37.8927C65.7036 37.9723 65.796 38.0318 65.9074 38.071C66.02 38.1093 66.141 38.1284 66.2705 38.1284C66.4212 38.1284 66.5566 38.104 66.6766 38.0551C66.7965 38.0052 66.8915 37.9362 66.9616 37.8481C67.0317 37.7589 67.0667 37.6549 67.0667 37.536C67.0667 37.4277 67.0364 37.3396 66.9759 37.2717C66.9154 37.2037 66.8358 37.1485 66.7371 37.1061C66.6383 37.0636 66.5316 37.0264 66.417 36.9946L66.0157 36.8799C65.7609 36.8067 65.5592 36.7021 65.4106 36.5662C65.262 36.4304 65.1877 36.2526 65.1877 36.0328C65.1877 35.8502 65.237 35.691 65.3358 35.5551C65.4356 35.4181 65.5693 35.312 65.7371 35.2366C65.9058 35.1602 66.0943 35.122 66.3023 35.122C66.5125 35.122 66.6994 35.1597 66.8629 35.235C67.0263 35.3093 67.1559 35.4112 67.2514 35.5408C67.348 35.6703 67.399 35.8173 67.4043 35.9818H67.0221ZM68.0472 38.4277V35.9818H68.423V38.4277H68.0472ZM68.2383 35.5742C68.165 35.5742 68.1019 35.5493 68.0488 35.4994C67.9968 35.4495 67.9708 35.3895 67.9708 35.3194C67.9708 35.2494 67.9968 35.1894 68.0488 35.1395C68.1019 35.0896 68.165 35.0646 68.2383 35.0646C68.3115 35.0646 68.3742 35.0896 68.4262 35.1395C68.4793 35.1894 68.5058 35.2494 68.5058 35.3194C68.5058 35.3895 68.4793 35.4495 68.4262 35.4994C68.3742 35.5493 68.3115 35.5742 68.2383 35.5742ZM69.1113 38.4277V35.9818H69.4744V36.364H69.5062C69.5572 36.2334 69.6394 36.1321 69.753 36.0599C69.8666 35.9866 70.003 35.95 70.1623 35.95C70.3236 35.95 70.4579 35.9866 70.5651 36.0599C70.6734 36.1321 70.7578 36.2334 70.8183 36.364H70.8438C70.9064 36.2377 71.0004 36.1374 71.1256 36.0631C71.2509 35.9877 71.4011 35.95 71.5763 35.95C71.795 35.95 71.9738 36.0185 72.1129 36.1554C72.252 36.2913 72.3215 36.5031 72.3215 36.7908V38.4277H71.9457V36.7908C71.9457 36.6103 71.8964 36.4813 71.7976 36.4038C71.6989 36.3263 71.5827 36.2876 71.4489 36.2876C71.2769 36.2876 71.1437 36.3396 71.0492 36.4436C70.9547 36.5466 70.9075 36.6772 70.9075 36.8354V38.4277H70.5253V36.7526C70.5253 36.6135 70.4802 36.5015 70.39 36.4166C70.2997 36.3306 70.1835 36.2876 70.0412 36.2876C69.9436 36.2876 69.8523 36.3136 69.7673 36.3656C69.6835 36.4176 69.6155 36.4898 69.5635 36.5822C69.5126 36.6735 69.4871 36.7791 69.4871 36.8991V38.4277H69.1113ZM73.0086 39.3449V35.9818H73.3717V36.3704H73.4163C73.4439 36.3279 73.4821 36.2738 73.5309 36.208C73.5808 36.1411 73.6519 36.0816 73.7443 36.0296C73.8377 35.9765 73.9641 35.95 74.1233 35.95C74.3292 35.95 74.5108 36.0015 74.6679 36.1045C74.825 36.2074 74.9476 36.3534 75.0357 36.5424C75.1238 36.7313 75.1679 36.9543 75.1679 37.2112C75.1679 37.4702 75.1238 37.6947 75.0357 37.8847C74.9476 38.0737 74.8255 38.2202 74.6695 38.3242C74.5134 38.4272 74.3335 38.4787 74.1297 38.4787C73.9725 38.4787 73.8467 38.4527 73.7523 38.4007C73.6578 38.3476 73.5851 38.2876 73.5341 38.2207C73.4832 38.1528 73.4439 38.0965 73.4163 38.0519H73.3844V39.3449H73.0086ZM73.3781 37.2048C73.3781 37.3895 73.4051 37.5525 73.4593 37.6936C73.5134 37.8338 73.5925 37.9437 73.6965 38.0233C73.8006 38.1018 73.928 38.1411 74.0787 38.1411C74.2358 38.1411 74.3669 38.0997 74.472 38.0169C74.5782 37.933 74.6578 37.8205 74.7109 37.6793C74.765 37.5371 74.7921 37.3789 74.7921 37.2048C74.7921 37.0328 74.7655 36.8778 74.7125 36.7398C74.6604 36.6008 74.5814 36.4909 74.4752 36.4102C74.3701 36.3285 74.2379 36.2876 74.0787 36.2876C73.9258 36.2876 73.7974 36.3263 73.6933 36.4038C73.5893 36.4803 73.5108 36.5875 73.4577 36.7255C73.4046 36.8624 73.3781 37.0222 73.3781 37.2048ZM76.1169 35.1666V38.4277H75.7411V35.1666H76.1169ZM77.0473 39.3449C76.9836 39.3449 76.9268 39.3396 76.8769 39.329C76.827 39.3195 76.7925 39.3099 76.7734 39.3004L76.8689 38.9691C76.9602 38.9925 77.0409 39.001 77.111 38.9946C77.181 38.9883 77.2431 38.9569 77.2973 38.9007C77.3525 38.8455 77.4029 38.7558 77.4486 38.6316L77.5186 38.4405L76.6142 35.9818H77.0218L77.697 37.9309H77.7225L78.3976 35.9818H78.8053L77.767 38.7844C77.7203 38.9108 77.6625 39.0153 77.5935 39.0981C77.5245 39.182 77.4443 39.2441 77.353 39.2844C77.2628 39.3248 77.1609 39.3449 77.0473 39.3449Z" fill="#494949"/>
<path d="M106.671 21.8721C106.319 21.8717 105.974 21.9759 105.68 22.1715C105.387 22.3671 105.158 22.6454 105.023 22.9711C104.888 23.2968 104.852 23.6553 104.921 24.0012C104.989 24.3472 105.159 24.665 105.408 24.9145C105.657 25.164 105.975 25.334 106.321 25.403C106.667 25.4719 107.025 25.4367 107.351 25.3019C107.677 25.167 107.955 24.9385 108.151 24.6453C108.347 24.3521 108.452 24.0074 108.452 23.6547C108.452 23.1823 108.264 22.7292 107.931 22.3949C107.597 22.0607 107.144 21.8726 106.671 21.8721ZM106.671 25.2357C106.359 25.2361 106.053 25.1437 105.793 24.9702C105.532 24.7968 105.329 24.55 105.209 24.2611C105.089 23.9723 105.058 23.6544 105.119 23.3475C105.179 23.0407 105.33 22.7588 105.551 22.5375C105.772 22.3162 106.053 22.1655 106.36 22.1043C106.667 22.0431 106.985 22.0743 107.274 22.1939C107.563 22.3135 107.81 22.5161 107.984 22.7762C108.158 23.0362 108.25 23.342 108.25 23.6547C108.25 24.0735 108.083 24.475 107.787 24.7713C107.491 25.0676 107.09 25.2346 106.671 25.2357Z" fill="#494949"/>
<path d="M107.319 24.0884C107.309 23.9935 107.274 23.903 107.218 23.8258C107.162 23.7487 107.086 23.6875 106.999 23.6483C107.118 23.6128 107.222 23.5395 107.296 23.4395C107.37 23.3395 107.408 23.2183 107.407 23.0941C107.409 23.0179 107.395 22.9421 107.366 22.8718C107.336 22.8015 107.292 22.7384 107.236 22.6867C107.057 22.55 106.832 22.4866 106.608 22.5094C106.428 22.5079 106.248 22.5229 106.07 22.5543V24.6996H106.349V23.7583H106.612C106.869 23.7583 106.983 23.8806 107.048 24.18C107.078 24.358 107.128 24.5321 107.195 24.6996H107.482C107.411 24.5007 107.357 24.2962 107.319 24.0884ZM106.637 23.5301H106.349V22.7356C106.44 22.7148 106.533 22.7059 106.626 22.7091C106.922 22.7091 107.126 22.8354 107.126 23.1166C107.128 23.3651 106.936 23.5301 106.637 23.5301Z" fill="#494949"/>
<path d="M34.4043 31.309L37.065 18.7979L37.3523 27.7131L34.4043 31.309Z" fill="#494949"/>
<path d="M20.4993 3.90218C20.4993 2.3559 19.4569 1.07545 18.1278 0.896494C18.0718 0.649125 17.9356 0.42717 17.7405 0.265072C17.5455 0.102975 17.3023 0.00979766 17.0489 0L14.1718 0C13.9165 0.0102048 13.6717 0.104753 13.4759 0.268851C13.28 0.43295 13.1441 0.657341 13.0894 0.906918C11.7898 1.12062 10.7873 2.3837 10.7891 3.90392V13.7706C10.7894 13.9363 10.8021 14.1019 10.8273 14.2657C11.041 15.7025 12.1599 16.7988 13.4872 16.7988H17.8133C19.172 16.7988 20.2961 15.6591 20.4785 14.1928C20.496 14.0539 20.5048 13.914 20.5046 13.774L20.4993 3.90218ZM17.8116 15.6591H13.4872C12.7089 15.6591 12.0539 15.0649 11.861 14.257C11.8263 14.0973 11.81 13.934 11.8124 13.7706V3.90566C11.8124 2.94314 12.4535 2.14742 13.2822 2.02927C13.3784 2.18239 13.5112 2.30911 13.6686 2.398C13.826 2.48688 14.0032 2.53511 14.1839 2.53833H17.0506C17.2332 2.53373 17.4118 2.48366 17.5701 2.39265C17.7285 2.30164 17.8616 2.17256 17.9575 2.01711C18.8141 2.10224 19.4882 2.91361 19.4882 3.89871V13.7654C19.493 13.9091 19.4826 14.053 19.4569 14.1945C19.2832 15.0336 18.6091 15.6591 17.8116 15.6591Z" fill="#F50308"/>
<path d="M4.04744 22.7861V32.7518L2.25966 24.6121C2.25249 24.5858 2.24669 24.5591 2.24229 24.5322C2.17453 24.183 2.03728 22.7879 4.04744 22.7861Z" fill="#494949"/>
<path d="M3.47425 34.5743L0.157567 27.5257C-0.00716537 27.1851 -0.0441566 26.7967 0.0533232 26.4312C0.0785159 26.3366 0.114058 26.2451 0.159304 26.1584C0.236252 26.0129 0.343023 25.8852 0.472649 25.7837C0.602276 25.6822 0.751844 25.6092 0.911595 25.5694C1.15176 25.5059 1.40212 25.4905 1.64825 25.5243L3.47425 34.5743Z" fill="#F50308"/>
<path d="M20.5725 34.4229C20.5725 34.2995 20.5604 34.1744 20.5517 34.0528C20.5524 34.0476 20.5524 34.0424 20.5517 34.0372V33.9659C20.524 33.6684 20.4799 33.3726 20.4196 33.0799V33.0694C20.3301 32.6252 20.2016 32.1898 20.0357 31.7681C20.0357 31.756 20.027 31.7455 20.0235 31.7334C20.02 31.7212 19.9974 31.6726 19.9836 31.6413C19.9765 31.6212 19.9684 31.6015 19.9592 31.5822C19.9453 31.5492 19.9332 31.518 19.9175 31.4867C19.9019 31.4554 19.8741 31.3911 19.8532 31.3425C19.789 31.2035 19.7195 31.068 19.6482 30.9342L19.5857 30.8247C19.585 30.8195 19.585 30.8143 19.5857 30.8091V30.7952L19.5231 30.6892L19.4658 30.5919L19.405 30.4981C19.3876 30.4686 19.3685 30.439 19.3494 30.4112L19.3147 30.3608L19.2469 30.2601C19.1844 30.1715 19.1201 30.0863 19.054 29.9977L18.9898 29.9161L18.8542 29.7423C17.4869 28.1179 15.409 27.1189 12.9297 27.0476C12.5777 27.0191 12.2237 27.0273 11.8734 27.072C10.6714 27.2031 9.53501 27.6866 8.60711 28.4619C8.63147 28.2061 8.70654 27.9578 8.82795 27.7314C8.94936 27.505 9.11467 27.305 9.31423 27.1432V21.1596C9.31423 21.1145 9.31423 21.0675 9.31423 21.0206C9.2961 20.6579 9.19215 20.3047 9.01093 19.99C8.82971 19.6753 8.57639 19.408 8.27179 19.2103C7.98136 19.018 7.64876 18.8988 7.30233 18.8628C6.95494 18.82 6.60239 18.8684 6.27944 19.0034C5.95649 19.1384 5.6743 19.3552 5.46069 19.6325C5.16787 20.0071 5.00231 20.4654 4.98812 20.9407C4.98812 20.9598 4.98812 20.9772 4.98812 20.9963L4.97249 22.3862V22.4123L4.92905 26.3214L4.9082 28.0015V32.8662V41.5427C4.90798 41.6969 4.93814 41.8495 4.99697 41.992C5.05581 42.1345 5.14216 42.264 5.25108 42.3731C5.36 42.4822 5.48936 42.5687 5.63175 42.6277C5.77415 42.6868 5.92679 42.7172 6.08094 42.7172H9.20825V43.0872H9.68777V43.5893C9.6821 43.7265 9.70421 43.8633 9.75278 43.9917C9.80135 44.12 9.87536 44.2373 9.97038 44.3363C10.0654 44.4353 10.1795 44.5141 10.3057 44.5679C10.4319 44.6218 10.5678 44.6495 10.705 44.6495C10.8423 44.6495 10.9781 44.6218 11.1043 44.5679C11.2306 44.5141 11.3446 44.4353 11.4396 44.3363C11.5347 44.2373 11.6087 44.12 11.6572 43.9917C11.7058 43.8633 11.7279 43.7265 11.7223 43.5893V43.0872H12.2018V42.8075H12.3477C12.445 42.8075 12.5423 42.8075 12.6396 42.8075C12.6396 42.8075 12.8394 42.8214 13.1747 42.8075L13.4666 42.7901C13.6647 42.7728 13.894 42.7467 14.1407 42.7068C14.712 42.6162 15.2718 42.4642 15.8103 42.2533C15.9267 42.2064 16.0431 42.156 16.1578 42.1004H16.1717C16.4588 41.9554 16.7367 41.7929 17.0039 41.6139C17.3568 41.38 17.6898 41.1173 17.9994 40.8286C18.0881 40.74 18.1732 40.6549 18.2618 40.5472C19.9019 38.9279 20.7272 36.9838 20.5725 34.4229ZM12.7091 38.9522C11.9243 38.9519 11.1571 38.7188 10.5048 38.2825C9.85239 37.8462 9.34405 37.2262 9.04402 36.501C8.744 35.7758 8.66576 34.9779 8.81921 34.2082C8.97267 33.4385 9.35091 32.7316 9.90612 32.1769C10.4613 31.6222 11.1686 31.2445 11.9384 31.0918C12.7082 30.939 13.506 31.0179 14.231 31.3186C14.956 31.6192 15.5755 32.1281 16.0112 32.7809C16.447 33.4336 16.6794 34.2009 16.679 34.9858C16.679 35.507 16.5763 36.023 16.3768 36.5045C16.1772 36.9859 15.8847 37.4234 15.5161 37.7917C15.1474 38.1601 14.7097 38.4522 14.2281 38.6513C13.7464 38.8504 13.2303 38.9527 12.7091 38.9522Z" fill="#F50308"/>
<path fillRule="evenodd" clipRule="evenodd" d="M26.499 15.8762C26.499 15.8762 26.784 14.1388 25.1265 14.1475L20.4807 14.1857H19.4504L11.8632 14.25L10.833 14.2587L6.10032 14.2986C6.10032 14.2986 4.93105 14.2986 4.94148 15.4783L4.97449 19.4274C4.97449 19.4274 6.83176 17.4312 8.89404 19.04C9.2801 19.3582 9.56706 19.7802 9.72104 20.2562C9.74536 20.343 9.76621 20.4334 9.78359 20.5272C9.80863 20.6419 9.82719 20.7579 9.83918 20.8747C9.83918 20.8747 9.83918 20.8747 9.83918 20.8868C9.85134 21.0085 9.85829 21.1388 9.85829 21.2777L9.87393 26.6828C9.87393 26.6828 13.8056 24.412 18.0623 26.7054C18.0623 26.7054 21.0645 27.9598 22.5204 32.51C22.5204 32.51 23.7817 37.1905 20.4008 40.9589C19.7619 41.6896 19.019 42.3224 18.196 42.837L19.3653 42.8509V43.1984H19.8448C19.8448 43.1984 19.5668 44.63 20.8629 44.7186C20.8629 44.7186 22.0791 44.7899 21.8793 43.1967H22.3588V42.8249L25.6859 42.7901C25.6859 42.7901 26.7284 42.7137 26.7284 41.6243L26.499 15.8762Z" fill="#494949"/>
<path d="M29.4867 42.5802L27.1447 43.0667L26.5227 45.4417L24.8184 40.6309L29.4867 42.5802Z" fill="#F50308"/>
</svg>
