
<svg width="33" height="48" viewBox="0 0 33 48" fill="none" xmlns="http://www.w3.org/2000/svg">
<path d="M22.3048 4.12202C22.3048 2.48868 21.1706 1.13612 19.7245 0.947095C19.6635 0.685797 19.5154 0.451345 19.3031 0.28012C19.0909 0.108895 18.8263 0.0104714 18.5506 0.00012207L15.4202 0.00012207C15.1424 0.0109015 14.8761 0.110773 14.663 0.284112C14.4499 0.45745 14.302 0.694476 14.2425 0.958106C12.8285 1.18384 11.7377 2.51804 11.7396 4.12386V14.5461C11.7399 14.7212 11.7538 14.896 11.7812 15.0691C12.0137 16.5868 13.2311 17.7449 14.6753 17.7449H19.3823C20.8606 17.7449 22.0837 16.541 22.2821 14.992C22.3012 14.8453 22.3107 14.6976 22.3105 14.5497L22.3048 4.12202ZM19.3804 16.541H14.6753C13.8285 16.541 13.1158 15.9133 12.906 15.0599C12.8682 14.8912 12.8505 14.7188 12.853 14.5461V4.12569C12.853 3.10898 13.5506 2.26845 14.4523 2.14366C14.5569 2.30539 14.7014 2.43926 14.8727 2.53314C15.044 2.62703 15.2367 2.67798 15.4334 2.68138H18.5525C18.7511 2.67652 18.9454 2.62363 19.1177 2.5275C19.29 2.43136 19.4349 2.29502 19.5392 2.13081C20.4712 2.22074 21.2046 3.07778 21.2046 4.11835V14.5406C21.2099 14.6924 21.1985 14.8444 21.1706 14.9939C20.9816 15.8803 20.2481 16.541 19.3804 16.541Z" fill="white"/>
<path d="M4.40383 24.0691V34.5959L2.45866 25.9979C2.45085 25.9701 2.44454 25.9419 2.43975 25.9135C2.36603 25.5446 2.21669 24.0709 4.40383 24.0691Z" fill="white"/>
<path d="M3.78013 36.521L0.171439 29.0756C-0.00779623 28.7158 -0.0480443 28.3055 0.058018 27.9194C0.0854287 27.8195 0.1241 27.7229 0.17333 27.6312C0.257053 27.4775 0.373224 27.3426 0.514263 27.2354C0.655302 27.1282 0.818039 27.0511 0.991854 27.0091C1.25316 26.942 1.52557 26.9258 1.79337 26.9614L3.78013 36.521Z" fill="white"/>
<path d="M22.384 36.361C22.384 36.2307 22.3708 36.0986 22.3613 35.9701C22.3621 35.9646 22.3621 35.9591 22.3613 35.9536V35.8784C22.3312 35.564 22.2833 35.2516 22.2177 34.9424V34.9314C22.1203 34.4622 21.9805 34.0022 21.7999 33.5568C21.7999 33.544 21.7905 33.533 21.7867 33.5201C21.7829 33.5073 21.7583 33.4559 21.7432 33.4228C21.7355 33.4016 21.7267 33.3808 21.7167 33.3604C21.7016 33.3256 21.6884 33.2925 21.6714 33.2595C21.6544 33.2265 21.6241 33.1586 21.6014 33.1072C21.5315 32.9604 21.4559 32.8172 21.3784 32.6759L21.3103 32.5603C21.3096 32.5548 21.3096 32.5493 21.3103 32.5438V32.5291L21.2423 32.4171L21.1799 32.3144L21.1137 32.2153C21.0948 32.1841 21.074 32.1529 21.0532 32.1235L21.0154 32.0703L20.9417 31.9638C20.8736 31.8702 20.8037 31.7803 20.7319 31.6867L20.6619 31.6005L20.5145 31.4169C19.0268 29.701 16.7659 28.6458 14.0684 28.5705C13.6854 28.5404 13.3002 28.549 12.919 28.5962C11.6112 28.7347 10.3747 29.2455 9.36515 30.0644C9.39165 29.7942 9.47333 29.5319 9.60543 29.2927C9.73753 29.0536 9.9174 28.8424 10.1345 28.6715V22.351C10.1345 22.3032 10.1345 22.2537 10.1345 22.2041C10.1148 21.821 10.0017 21.4479 9.80452 21.1154C9.60734 20.783 9.33172 20.5007 9.00031 20.2918C8.6843 20.0888 8.32242 19.9628 7.94549 19.9248C7.56752 19.8796 7.18392 19.9307 6.83254 20.0733C6.48115 20.2159 6.17412 20.4449 5.94171 20.7378C5.62311 21.1335 5.44297 21.6177 5.42753 22.1197C5.42753 22.1399 5.42753 22.1583 5.42753 22.1785L5.41052 23.6466V23.6742L5.36326 27.8034L5.34058 29.5781V34.7167V43.8818C5.34033 44.0446 5.37315 44.2059 5.43716 44.3564C5.50118 44.5069 5.59513 44.6437 5.71364 44.7589C5.83215 44.8741 5.9729 44.9655 6.12783 45.0279C6.28276 45.0903 6.44884 45.1224 6.61657 45.1224H10.0192V45.5133H10.5409V46.0436C10.5348 46.1885 10.5588 46.333 10.6117 46.4686C10.6645 46.6042 10.7451 46.728 10.8484 46.8326C10.9518 46.9372 11.0759 47.0205 11.2133 47.0773C11.3506 47.1342 11.4984 47.1635 11.6478 47.1635C11.7971 47.1635 11.9449 47.1342 12.0822 47.0773C12.2196 47.0205 12.3437 46.9372 12.4471 46.8326C12.5504 46.728 12.631 46.6042 12.6838 46.4686C12.7367 46.333 12.7607 46.1885 12.7546 46.0436V45.5133H13.2763V45.2178H13.4351C13.5409 45.2178 13.6468 45.2178 13.7527 45.2178C13.7527 45.2178 13.9701 45.2325 14.3349 45.2178L14.6525 45.1994C14.868 45.1811 15.1175 45.1536 15.3859 45.1113C16.0075 45.0157 16.6166 44.8551 17.2026 44.6324C17.3292 44.5828 17.4559 44.5296 17.5806 44.4709H17.5958C17.9081 44.3176 18.2105 44.146 18.5012 43.957C18.8852 43.7099 19.2474 43.4324 19.5844 43.1275C19.6808 43.0339 19.7734 42.944 19.8699 42.8302C21.6544 41.1197 22.5523 39.0661 22.384 36.361ZM13.8283 41.1454C12.9743 41.1451 12.1397 40.8989 11.4299 40.438C10.7201 39.9771 10.167 39.3222 9.84053 38.5562C9.51409 37.7901 9.42896 36.9473 9.59592 36.1343C9.76289 35.3212 10.1744 34.5745 10.7785 33.9886C11.3826 33.4026 12.1521 33.0037 12.9897 32.8423C13.8273 32.681 14.6954 32.7643 15.4842 33.0819C16.273 33.3995 16.947 33.9371 17.4212 34.6266C17.8953 35.3161 18.1481 36.1266 18.1477 36.9556C18.1477 37.5062 18.036 38.0513 17.8189 38.5599C17.6018 39.0684 17.2835 39.5305 16.8824 39.9196C16.4812 40.3087 16.005 40.6172 15.481 40.8276C14.9569 41.0379 14.3953 41.1459 13.8283 41.1454Z" fill="white"/>
<path fill-rule="evenodd" clip-rule="evenodd" d="M28.8322 16.77C28.8322 16.77 29.1422 14.9348 27.3388 14.944L22.284 14.9844H21.163L12.9078 15.0523L11.7869 15.0615L6.63753 15.1037C6.63753 15.1037 5.36532 15.1037 5.37666 16.3498L5.41258 20.5212C5.41258 20.5212 7.43337 18.4126 9.67722 20.112C10.0973 20.4481 10.4095 20.8938 10.577 21.3966C10.6035 21.4884 10.6262 21.5838 10.6451 21.6829C10.6723 21.8041 10.6925 21.9266 10.7056 22.05C10.7056 22.05 10.7056 22.05 10.7056 22.0628C10.7188 22.1913 10.7264 22.3289 10.7264 22.4757L10.7434 28.1851C10.7434 28.1851 15.0213 25.7865 19.6526 28.209C19.6526 28.209 22.9192 29.534 24.5033 34.3404C24.5033 34.3404 25.8757 39.2845 22.1971 43.2651C21.5019 44.037 20.6936 44.7054 19.7982 45.249L21.0704 45.2637V45.6307H21.5921C21.5921 45.6307 21.2897 47.1429 22.6999 47.2365C22.6999 47.2365 24.0231 47.3118 23.8057 45.6289H24.3275V45.2361L27.9475 45.1994C27.9475 45.1994 29.0817 45.1187 29.0817 43.968L28.8322 16.77Z" fill="white"/>
<path d="M32.0822 44.9773L29.534 45.4912L28.8572 47.9999L27.0028 42.9182L32.0822 44.9773Z" fill="white"/>
</svg>
